<?xml version="1.0" encoding="UTF-8"?><svg xmlns="http://www.w3.org/2000/svg" xmlns:xlink="http://www.w3.org/1999/xlink" viewBox="0 0 675.22 464.79"><defs><style>.f{fill:url(#e);}.g{fill:url(#d);}</style><linearGradient id="d" x1="472.32" y1="137.08" x2="314.1" y2="364.53" gradientTransform="matrix(1, 0, 0, 1, 0, 0)" gradientUnits="userSpaceOnUse"><stop offset="0" stop-color="#882de7" stop-opacity=".4"/><stop offset="1" stop-color="#882de7" stop-opacity="0"/></linearGradient><linearGradient id="e" x1="299.34" y1="337.41" x2="492.17" y2="177.95" gradientTransform="matrix(1, 0, 0, 1, 0, 0)" gradientUnits="userSpaceOnUse"><stop offset="0" stop-color="#ff7c00"/><stop offset="1" stop-color="#882de7"/></linearGradient></defs><g id="a"/><g id="b"><g id="c"><g><path class="g" d="M593.34,214.98c-17.18,17.87-41.3,29.01-68.05,29.01-52.14,0-94.41-42.27-94.41-94.41,0-19.82,6.12-38.2,16.55-53.38l-43.45-35.37L0,464.79H423.87l213.61-213.88-44.14-35.94Z"/><path class="f" d="M655.21,75.29c-13.34-23.17-31.9-41.51-55.68-55.02-23.78-13.51-49.19-20.27-76.21-20.27-37.38,0-70.47,12.99-99.25,38.96-32.82,29.84-49.23,67.13-49.23,111.88,0,1.69,.06,3.35,.11,5.02l-61.19,147.87,69.82-32.91-55.61,123.69,189.5-93.49c2.02,.07,4.05,.14,6.1,.14,27.91,0,53.44-6.63,76.61-19.88,23.17-13.25,41.46-31.63,54.89-55.15,13.43-23.52,20.14-48.79,20.14-75.82s-6.67-51.86-20.01-75.03Zm-74.8,135.58c-14.94,15.62-33.67,23.43-56.17,23.43s-41.1-7.72-55.77-23.17c-14.68-15.44-22.02-35.62-22.02-60.55s7.42-44.09,22.28-59.63c14.85-15.53,33.45-23.3,55.77-23.3s41.62,7.68,56.3,23.04c14.68,15.36,22.02,35.32,22.02,59.89s-7.47,44.67-22.41,60.29Z"/></g></g></g></svg>